# xmcd
#
# Track frame offsets:
#	150
#	65812
#	85900
#	107775
#	136875
#	156875
#	192112
#	213012
#	230112
#
# Disc length: 3437 seconds
#
# Revision: 1
# Processed by: cddbd v1.4PL0 Copyright (c) Steve Scherf et al.
# Submitted via: EasyCDDAExtractor 5.1.0
#
DISCID=7b0d6b09
DTITLE=杜沖 - 春到拉薩
DYEAR=1900
DGENRE=國樂
TTITLE0=走西口
TTITLE1=妝臺秋思
TTITLE2=春到拉薩
TTITLE3=牧歌
TTITLE4=腳踏水車唱豐收
TTITLE5=春之海
TTITLE6=棗園春色
TTITLE7=佛上殿
TTITLE8=山寨情歌
EXTD=
EXTT0=
EXTT1=
EXTT2=
EXTT3=
EXTT4=
EXTT5=
EXTT6=
EXTT7=
EXTT8=
PLAYORDER=
